<svg width="318" height="453" viewBox="0 0 318 453" fill="none" xmlns="http://www.w3.org/2000/svg">
<rect x="80" width="158" height="62" fill="white"/>
<path d="M306 20C312.627 20 318 25.3726 318 32V441C318 447.524 312.794 452.832 306.31 452.996L306 453H12L11.6904 452.996C5.30895 452.835 0.165501 447.691 0.00390625 441.31L0 441V32C0 25.3726 5.37258 20 12 20H71V47H27V426H291V47H246V20H306Z" fill="white"/>
<line x1="61" y1="118" x2="194" y2="118" stroke="white" stroke-width="22" stroke-linecap="round"/>
<line x1="61" y1="195" x2="194" y2="195" stroke="white" stroke-width="22" stroke-linecap="round"/>
<line x1="61" y1="272" x2="194" y2="272" stroke="white" stroke-width="22" stroke-linecap="round"/>
<line x1="61" y1="349" x2="194" y2="349" stroke="white" stroke-width="22" stroke-linecap="round"/>
<circle cx="247" cy="116.543" r="20" fill="white"/>
<circle cx="247" cy="193.543" r="20" fill="white"/>
<circle cx="247" cy="270.543" r="20" fill="white"/>
<circle cx="247" cy="347.543" r="20" fill="white"/>
</svg>
